<mxfile host="app.diagrams.net" modified="2024-07-12T05:39:04.879Z" agent="Mozilla/5.0 (Macintosh; Intel Mac OS X 10_15_7) AppleWebKit/537.36 (KHTML, like Gecko) Chrome/126.0.0.0 Safari/537.36" version="24.6.5" etag="XBT3d7jNa9U2xpYHQePf" type="github">
  <diagram name="페이지-1" id="S54I867A_Rcorkbqiu-z">
    <mxGraphModel>
      <root>
        <mxCell id="0" />
        <mxCell id="1" parent="0" />
      </root>
    </mxGraphModel>
  </diagram>
</mxfile>
